<?xml version="1.0" standalone="no"?>
<!DOCTYPE svg PUBLIC "-//W3C//DTD SVG 20010904//EN"
 "http://www.w3.org/TR/2001/REC-SVG-20010904/DTD/svg10.dtd">
<svg version="1.0" xmlns="http://www.w3.org/2000/svg"
 width="700.000000pt" height="700.000000pt" viewBox="0 0 700.000000 700.000000"
 preserveAspectRatio="xMidYMid meet">
<metadata>
Created by potrace 1.11, written by Peter Selinger 2001-2013
</metadata>
<g transform="translate(0.000000,700.000000) scale(0.100000,-0.100000)"
fill="#000000" stroke="none">
<path d="M3278 6995 c-1 -1 -43 -6 -91 -10 -48 -3 -96 -8 -106 -10 -10 -2 -40
-6 -67 -10 -27 -3 -56 -7 -64 -9 -8 -1 -37 -7 -65 -11 -27 -5 -52 -10 -55 -10
-3 -1 -23 -5 -45 -9 -436 -85 -933 -303 -1317 -577 -670 -481 -1146 -1170
-1353 -1964 -19 -71 -36 -141 -39 -155 -12 -68 -28 -158 -32 -180 -3 -14 -7
-45 -10 -70 -3 -25 -7 -56 -9 -70 -13 -74 -20 -219 -20 -420 1 -243 5 -310 35
-510 6 -41 13 -86 15 -100 16 -120 143 -568 184 -655 6 -11 23 -51 39 -90 65
-154 166 -349 238 -462 19 -30 34 -57 34 -62 0 -5 4 -11 8 -13 5 -2 34 -41 65
-88 52 -79 214 -287 261 -336 236 -246 329 -331 501 -461 92 -70 243 -173 252
-173 4 0 14 -6 22 -14 16 -14 28 -21 171 -100 62 -35 270 -134 345 -166 208
-86 567 -187 770 -215 28 -4 59 -9 70 -10 193 -30 562 -40 786 -22 90 7 109
10 184 22 17 3 50 8 75 11 87 11 276 54 395 89 66 20 127 37 135 40 117 30
461 182 620 272 186 106 408 259 535 368 137 118 323 301 400 395 21 25 40 47
44 50 29 22 207 271 293 410 199 321 375 761 443 1110 18 91 36 200 45 265 5
44 12 96 15 115 10 61 13 531 4 615 -4 44 -10 107 -14 140 -3 33 -10 83 -15
110 -5 28 -12 68 -16 90 -36 252 -159 632 -297 915 -381 781 -1031 1388 -1837
1715 -63 26 -144 56 -180 67 -36 11 -81 26 -100 33 -64 23 -306 82 -407 99
-29 5 -214 31 -293 42 -48 6 -546 15 -552 9z"/>
</g>
</svg>
